<?xml version="1.0" standalone="no"?><!DOCTYPE svg PUBLIC "-//W3C//DTD SVG 1.1//EN" "http://www.w3.org/Graphics/SVG/1.1/DTD/svg11.dtd"><svg t="1716283227066" class="icon" viewBox="0 0 1024 1024" version="1.1" xmlns="http://www.w3.org/2000/svg" p-id="6585" xmlns:xlink="http://www.w3.org/1999/xlink" width="200" height="200"><path d="M903.168 793.6L706.56 599.04c12.288-26.624 19.456-56.32 19.456-87.04 0-112.64-92.16-204.8-204.8-204.8-19.456 0-36.864 2.048-54.272 7.168l87.04 87.04c35.84 35.84 33.792 97.28-5.12 137.216-38.912 39.936-100.352 41.984-137.216 5.12l-87.04-87.04c-5.12 17.408-7.168 35.84-7.168 54.272 0 112.64 91.136 204.8 204.8 204.8 30.72 0 61.44-7.168 87.04-19.456l196.608 195.584c24.576 24.576 66.56 23.552 93.184-4.096 26.624-27.648 28.672-69.632 4.096-94.208zM849.92 873.472c-19.456 0-34.816-15.36-34.816-34.816s15.36-34.816 34.816-34.816 34.816 15.36 34.816 34.816c0 18.432-15.36 34.816-34.816 34.816z m100.352-452.608h-66.56c-9.216-1.024-18.432-4.096-26.624-9.216l-1.024-1.024c-16.384-11.264-27.648-29.696-26.624-51.2 0-6.144 1.024-13.312 3.072-19.456 2.048-7.168 5.12-13.312 10.24-19.456l10.24-10.24 23.552-23.552 14.336-14.336c20.48-25.6 19.456-62.464-1.024-88.064l-40.96-40.96c-25.6-20.48-62.464-21.504-88.064-1.024l-14.336 14.336-32.768 32.768c-18.432 14.336-43.008 17.408-63.488 8.192-7.168-3.072-13.312-7.168-19.456-13.312-10.24-10.24-16.384-23.552-17.408-35.84V81.92c-4.096-32.768-30.72-58.368-63.488-61.44H491.52c-30.72 4.096-57.344 29.696-61.44 62.464v66.56c0 1.024 0 3.072-1.024 5.12 0 1.024-1.024 3.072-1.024 5.12 0 1.024-1.024 3.072-2.048 5.12-1.024 1.024-1.024 3.072-2.048 5.12-3.072 7.168-8.192 13.312-14.336 18.432-10.24 9.216-24.576 14.336-39.936 14.336-14.336 0-27.648-5.12-37.888-13.312l-10.24-10.24-37.888-35.84c-25.6-20.48-62.464-19.456-88.064 1.024l-40.96 39.936c-20.48 25.6-21.504 62.464-1.024 88.064l14.336 14.336 32.768 32.768c0 1.024 1.024 1.024 1.024 2.048s1.024 1.024 1.024 2.048 1.024 1.024 1.024 2.048c0 0 1.024 1.024 1.024 2.048s1.024 2.048 1.024 3.072l1.024 1.024c0 1.024 1.024 2.048 1.024 3.072v1.024c0 1.024 1.024 3.072 1.024 5.12 0 1.024 1.024 3.072 1.024 5.12 2.048 18.432-3.072 36.864-17.408 51.2-10.24 10.24-23.552 16.384-35.84 17.408H93.184c-32.768 5.12-58.368 30.72-62.464 63.488v57.344c3.072 32.768 28.672 58.368 61.44 63.488h66.56c2.048 0 4.096 0 5.12 1.024h1.024c1.024 0 2.048 0 4.096 1.024 24.576 7.168 43.008 30.72 43.008 58.368 0 14.336-5.12 27.648-13.312 37.888l-10.24 10.24-23.552 23.552-14.336 14.336c-20.48 25.6-19.456 62.464 1.024 88.064l40.96 40.96c25.6 20.48 62.464 21.504 88.064 1.024l14.336-14.336 32.768-32.768h1.024c1.024-1.024 2.048-2.048 4.096-2.048 0 0 1.024-1.024 2.048-1.024l3.072-1.024c1.024 0 2.048-1.024 3.072-1.024 0 0 1.024 0 1.024-1.024 1.024 0 3.072-1.024 5.12-1.024 1.024 0 3.072-1.024 5.12-1.024h9.216c16.384-1.024 33.792 5.12 47.104 18.432 10.24 10.24 16.384 23.552 17.408 35.84V942.08c4.096 32.768 29.696 58.368 63.488 62.464h57.344c32.768-3.072 58.368-28.672 63.488-61.44v-66.56c1.024-11.264 6.144-22.528 12.288-30.72 0-1.024 1.024-1.024 1.024-2.048l2.048-2.048c3.072-4.096 8.192-7.168 12.288-10.24 1.024 0 2.048-1.024 3.072-2.048h2.048c1.024 0 2.048-1.024 3.072-1.024l-54.272-54.272c-24.576 7.168-49.152 10.24-74.752 10.24-148.48 0-268.288-120.832-268.288-269.312s120.832-268.288 269.312-268.288 268.288 120.832 268.288 269.312c0 24.576-3.072 49.152-10.24 72.704l54.272 54.272c3.072-6.144 7.168-12.288 12.288-17.408 6.144-6.144 13.312-10.24 20.48-13.312 5.12-2.048 10.24-4.096 16.384-4.096h67.584c32.768-4.096 58.368-30.72 62.464-63.488v-57.344c-2.048-35.84-27.648-62.464-59.392-66.56z m0 0" p-id="6586" fill="#2c2c2c"></path></svg>